<?xml version="1.0" encoding="UTF-8"?>
<svg version="1.1"
    xmlns="http://www.w3.org/2000/svg"
    width="512"
    height="512">
    <path
        d="M0 0 C6.94299948 5.48879644 9.77328488 14.86687584 13.10546875 22.7734375 C14.25677132 25.47291796 15.41360686 28.17001856 16.5703125 30.8671875 C16.87820206 31.5866304 17.18609161 32.3060733 17.50331116 33.0473175 C21.48011875 42.32367284 25.5793794 51.54596666 29.66796875 60.7734375 C31.30784874 64.47761819 32.94703571 68.18210517 34.5859375 71.88671875 C34.99442932 72.80999466 35.40292114 73.73327057 35.8237915 74.68452454 C40.43085629 85.10221585 45.0060279 95.53386765 49.57873535 105.9666748 C53.94261412 115.92233419 58.32160191 125.87103412 62.7265625 135.80859375 C63.16199371 136.79149384 63.59742493 137.77439392 64.04605103 138.78707886 C66.1535814 143.54418562 68.26328013 148.30030683 70.37695312 153.0546875 C71.13942025 154.77469644 71.90179484 156.4947464 72.6640625 158.21484375 C73.00698837 158.98385513 73.34991425 159.75286652 73.70323181 160.54518127 C80.31149683 175.48168481 80.31149683 175.48168481 79.48046875 182.9609375 C75.07249587 193.79720416 63.51849407 196.88200115 53.41796875 201.1484375 C50.7323072 202.28987145 48.04778512 203.43397155 45.36328125 204.578125 C44.69494766 204.86208633 44.02661407 205.14604767 43.33802795 205.43861389 C39.12164736 207.2366963 34.94522147 209.10531717 30.78515625 211.03125 C29.76687744 211.49635986 28.74859863 211.96146973 27.69946289 212.44067383 C25.82662166 213.29945924 23.96053869 214.17321851 22.10327148 215.06518555 C15.87036345 217.88907449 10.3155823 218.82216461 3.48046875 217.9609375 C-1.79911034 215.56112882 -4.11630358 212.06531362 -6.51953125 206.9609375 C-6.89335937 206.17460937 -7.2671875 205.38828125 -7.65234375 204.578125 C-10.51953125 198.34249344 -10.51953125 198.34249344 -10.51953125 195.9609375 C-11.39536865 196.3513623 -12.27120605 196.74178711 -13.17358398 197.14404297 C-23.36963403 201.68776645 -33.5709216 206.21963317 -43.7755127 210.74414062 C-45.62189905 211.56289498 -47.46816979 212.3819101 -49.31433105 213.20117188 C-54.91345718 215.68568871 -60.51479769 218.16509759 -66.11917114 220.63775635 C-67.92006963 221.43315403 -69.72026837 222.23013804 -71.51974487 223.02874756 C-74.05554002 224.15371978 -76.59384145 225.2728426 -79.1328125 226.390625 C-79.87933075 226.72328369 -80.625849 227.05594238 -81.39498901 227.39868164 C-85.71406488 229.29154943 -89.95529315 230.7694201 -94.51953125 231.9609375 C-94.10380859 232.96060547 -94.10380859 232.96060547 -93.6796875 233.98046875 C-88.94307267 246.03270932 -88.04523288 257.86579972 -92.74609375 270.171875 C-95.49801699 276.01419333 -98.55902364 280.64097501 -103.296875 285.046875 C-104.78770421 286.95011003 -104.78770421 286.95011003 -104.28344727 289.55712891 C-103.36583455 293.64576951 -102.00896547 297.4257439 -100.51953125 301.3359375 C-100.21233658 302.15596756 -99.90514191 302.97599762 -99.58863831 303.82087708 C-98.92135223 305.60028238 -98.25158514 307.37875884 -97.57962036 309.15640259 C-96.49867084 312.01612507 -95.42411947 314.87817823 -94.35131836 317.7409668 C-93.22154833 320.75574796 -92.09144408 323.77039787 -90.9594574 326.78434753 C-87.31672492 336.48506957 -83.71999234 346.20251468 -80.13330078 355.92407227 C-79.07252373 358.79920671 -78.01098526 361.67405894 -76.94921875 364.54882812 C-75.51946182 368.41999895 -74.08994726 372.29125911 -72.66064453 376.16259766 C-69.82171872 383.85138874 -66.98026437 391.53924493 -64.13867188 399.22705078 C-62.73451214 403.02601479 -61.33089323 406.82517792 -59.92773438 410.62451172 C-56.60732994 419.61407147 -53.2831265 428.60218012 -49.94729614 437.58602905 C-48.37045173 441.83331452 -46.79550343 446.08130196 -45.22070312 450.3293457 C-44.4688853 452.35573975 -43.71613681 454.38178878 -42.96240234 456.4074707 C-41.91789449 459.21479076 -40.87658913 462.02327987 -39.8359375 464.83203125 C-39.37466209 466.06789223 -39.37466209 466.06789223 -38.90406799 467.32872009 C-37.23934251 471.83257319 -35.77391673 476.32546743 -34.51953125 480.9609375 C-33.79362793 480.93999023 -33.06772461 480.91904297 -32.31982422 480.89746094 C-29.0115357 480.814001 -25.70346914 480.76218211 -22.39453125 480.7109375 C-21.25242187 480.67742187 -20.1103125 480.64390625 -18.93359375 480.609375 C-12.49297458 480.53448408 -8.35524715 480.50160558 -3.51953125 484.9609375 C-0.54283839 488.75878701 0.23257746 492.16837249 0.48046875 496.9609375 C-0.47979791 502.53048411 -2.24012353 505.30778457 -6.51953125 508.9609375 C-9.56313091 510.99000394 -10.19470808 511.21526161 -13.62036133 511.25146484 C-14.85227959 511.2706044 -14.85227959 511.2706044 -16.10908508 511.29013062 C-16.99347763 511.29235626 -17.87787018 511.29458191 -18.7890625 511.296875 C-19.7028215 511.3035318 -20.61658051 511.3101886 -21.55802917 511.31704712 C-23.49219754 511.32717393 -25.42640085 511.33186413 -27.3605957 511.33154297 C-30.31065006 511.33590588 -33.25919579 511.37219624 -36.20898438 511.41015625 C-38.08983865 511.41602656 -39.97070001 511.41999452 -41.8515625 511.421875 C-42.72988235 511.43624603 -43.60820221 511.45061707 -44.51313782 511.46542358 C-49.97274308 511.42498427 -53.36429908 510.84201714 -57.51953125 506.9609375 C-61.27036376 501.31408261 -63.311979 494.51158063 -65.62890625 488.1875 C-66.00057922 487.18254486 -66.3722522 486.17758972 -66.75518799 485.1421814 C-67.53382932 483.0335918 -68.3102242 480.92417141 -69.08447266 478.81396484 C-70.27429631 475.57295776 -71.4725628 472.33516256 -72.671875 469.09765625 C-73.42888507 467.04445498 -74.18541284 464.99107582 -74.94140625 462.9375 C-75.30071228 461.96672516 -75.66001831 460.99595032 -76.0302124 459.99575806 C-76.35765442 459.10077606 -76.68509644 458.20579407 -77.02246094 457.28369141 C-77.31239929 456.49507721 -77.60233765 455.70646301 -77.90106201 454.89395142 C-78.51953125 452.9609375 -78.51953125 452.9609375 -78.51953125 450.9609375 C-116.13953125 450.9609375 -153.75953125 450.9609375 -192.51953125 450.9609375 C-193.50953125 454.2609375 -194.49953125 457.5609375 -195.51953125 460.9609375 C-196.64069214 464.21702041 -197.77801666 467.4591257 -198.953125 470.6953125 C-199.27233414 471.57697083 -199.59154327 472.45862915 -199.92042542 473.36700439 C-200.59030936 475.2128541 -201.26178952 477.05812526 -201.93481445 478.90283203 C-202.95851214 481.71500561 -203.9705316 484.53121608 -204.98242188 487.34765625 C-205.63860864 489.15130169 -206.29548585 490.95469612 -206.953125 492.7578125 C-207.25117538 493.59229919 -207.54922577 494.42678589 -207.85630798 495.28656006 C-209.91688275 500.88020733 -212.03365291 505.84461574 -216.68237305 509.80224609 C-220.76266636 511.46863212 -224.54232169 511.46737791 -228.9140625 511.5 C-229.82024826 511.51235687 -230.72643402 511.52471375 -231.66007996 511.53744507 C-233.57385831 511.55697499 -235.4877366 511.56823701 -237.40161133 511.57177734 C-240.31308711 511.58584596 -243.22024798 511.65318588 -246.13085938 511.72265625 C-261.70853272 511.90506736 -261.70853272 511.90506736 -266.78125 507.609375 C-270.59007992 503.30987181 -270.86552483 499.07882558 -270.80078125 493.53515625 C-270.35053932 489.41419189 -269.02155676 487.27443074 -266.51953125 483.9609375 C-262.81322762 481.25418497 -260.11833882 480.56603513 -255.5625 480.44921875 C-253.89477539 480.39604492 -253.89477539 480.39604492 -252.19335938 480.34179688 C-251.04287109 480.31923828 -249.89238281 480.29667969 -248.70703125 480.2734375 C-247.53720703 480.23927734 -246.36738281 480.20511719 -245.16210938 480.16992188 C-242.28134571 480.08761434 -239.40087987 480.01840572 -236.51953125 479.9609375 C-236.15529053 478.95272949 -235.7910498 477.94452148 -235.41577148 476.90576172 C-226.74643799 452.92540061 -217.96120292 428.98926712 -209.08203125 405.0859375 C-208.83657562 404.42512932 -208.59112 403.76432114 -208.33822632 403.08348846 C-206.12409023 397.12287072 -203.90949493 391.16242364 -201.69451904 385.20211792 C-196.58474632 371.45092257 -191.48917095 357.69445143 -186.41870117 343.92871094 C-185.75577758 342.12952746 -185.09277399 340.33037345 -184.4296875 338.53125 C-184.10830307 337.6592395 -183.78691864 336.787229 -183.45579529 335.88879395 C-181.44794546 330.45004559 -179.41756678 325.02021492 -177.37141418 319.59576416 C-176.02443272 316.02248964 -174.68519461 312.44633767 -173.34671021 308.86987305 C-172.71906789 307.19959336 -172.08754344 305.53076658 -171.45187378 303.86352539 C-170.58706644 301.59483943 -169.73549078 299.32159886 -168.88671875 297.046875 C-168.62938461 296.38259491 -168.37205048 295.71831482 -168.10691833 295.03390503 C-166.87094229 291.67940767 -166.04560718 289.33011949 -167.51953125 285.9609375 C-168.74297617 284.3097188 -168.74297617 284.3097188 -170.26953125 282.7734375 C-172.7029624 280.0917596 -174.50561879 277.40851997 -176.22265625 274.22265625 C-176.65739258 273.42174561 -177.09212891 272.62083496 -177.54003906 271.7956543 C-177.86327148 271.19019775 -178.18650391 270.58474121 -178.51953125 269.9609375 C-179.64335205 270.47591797 -180.76717285 270.99089844 -181.92504883 271.52148438 C-186.13338642 273.44327472 -190.35365467 275.33754416 -194.57788086 277.22412109 C-196.3976071 278.04131222 -198.21410411 278.86573695 -200.02709961 279.69775391 C-221.4277273 289.50612962 -221.4277273 289.50612962 -230.57324219 286.22387695 C-237.24621732 282.97670814 -239.99640635 273.44130387 -242.51953125 266.9609375 C-242.51953125 266.3009375 -242.51953125 265.6409375 -242.51953125 264.9609375 C-243.60741943 265.44224121 -244.69530762 265.92354492 -245.81616211 266.41943359 C-266.47833204 275.5596926 -287.14583801 284.68765963 -307.83203125 293.7734375 C-308.67667938 294.14466736 -309.52132751 294.51589722 -310.39157104 294.89837646 C-315.05902424 296.94946135 -319.72884784 298.99496517 -324.40167236 301.03378296 C-326.48119264 301.94415366 -328.55693262 302.86273399 -330.63232422 303.7824707 C-331.89018998 304.33439675 -333.14815898 304.88608762 -334.40625 305.4375 C-335.48479248 305.91396973 -336.56333496 306.39043945 -337.67456055 306.88134766 C-342.848299 308.84464221 -346.44341363 308.69368489 -351.70703125 306.8359375 C-358.22880258 302.48808995 -360.95868738 296.44862249 -363.953125 289.4609375 C-364.35354507 288.54820068 -364.75396515 287.63546387 -365.16651917 286.69506836 C-366.43934778 283.78765837 -367.6983263 280.8744856 -368.95703125 277.9609375 C-369.79792945 276.03476367 -370.63971864 274.10897856 -371.48242188 272.18359375 C-373.48461609 267.60292167 -375.47091464 263.01557843 -377.45166016 258.42559814 C-378.43643055 256.15273502 -379.43160153 253.88482939 -380.43164062 251.61865234 C-380.71378922 250.97444336 -380.99593781 250.33023438 -381.28663635 249.66650391 C-382.01559271 248.00214887 -382.74869189 246.33960994 -383.48217773 244.67724609 C-385.23314041 240.09235302 -385.49234795 236.73165283 -383.82945251 231.99549866 C-381.45896952 226.75707678 -378.8398938 224.30172797 -373.5234375 222.01953125 C-372.82505264 221.69560898 -372.12666779 221.37168671 -371.40711975 221.03794861 C-369.12198983 219.98656831 -366.82223899 218.9731646 -364.51953125 217.9609375 C-362.9496165 217.25049712 -361.38045117 216.53839853 -359.81201172 215.82470703 C-354.71111322 213.51754764 -349.58547265 211.26854681 -344.45703125 209.0234375 C-342.5898184 208.20296096 -340.72271415 207.38223721 -338.85571289 206.5612793 C-335.0117549 204.87214344 -331.1665451 203.18590294 -327.3203125 201.50195312 C-322.51637321 199.39861329 -317.71528309 197.28886173 -312.9150238 195.17713928 C-309.29328782 193.58479049 -305.6699999 191.99600082 -302.0461731 190.40841675 C-300.32457139 189.65373341 -298.60343788 188.89798108 -296.88278198 188.1411438 C-294.5015321 187.09441151 -292.11827185 186.05240567 -289.734375 185.01171875 C-289.02812988 184.7001886 -288.32188477 184.38865845 -287.59423828 184.06768799 C-282.7482116 181.9609375 -282.7482116 181.9609375 -280.51953125 181.9609375 C-281.33080204 179.83546791 -282.14358523 177.71057555 -282.95703125 175.5859375 C-283.40949219 174.40257812 -283.86195313 173.21921875 -284.328125 172 C-285.41225037 169.10057557 -285.41225037 169.10057557 -286.51953125 166.9609375 C-287.11059612 161.27762142 -286.79196541 156.81316747 -283.51953125 151.9609375 C-280.12986296 148.95910142 -276.81631174 146.97968369 -272.69140625 145.140625 C-271.52109863 144.61500977 -270.35079102 144.08939453 -269.14501953 143.54785156 C-267.85329191 142.97698313 -266.5614588 142.40635334 -265.26953125 141.8359375 C-263.8980546 141.22412605 -262.52680421 140.6118072 -261.15576172 139.99902344 C-256.61576898 137.9740158 -252.06822604 135.96630621 -247.51953125 133.9609375 C-246.72994019 133.61252808 -245.94034912 133.26411865 -245.12683105 132.90515137 C-234.0254644 128.00740715 -222.91279299 123.13560655 -211.796875 118.27099609 C-203.24354035 114.52763163 -194.69386729 110.77592325 -186.14453125 107.0234375 C-185.30303528 106.65416138 -184.46153931 106.28488525 -183.59454346 105.90441895 C-171.29359887 100.50578034 -159.00198393 95.08630484 -146.71618652 89.65328979 C-141.36741335 87.28827784 -136.01779773 84.92517177 -130.66821289 82.56199646 C-126.03942948 80.51703002 -121.41128808 78.47062893 -116.78417969 76.421875 C-112.05751633 74.32927263 -107.32904509 72.24080432 -102.59936523 70.1550293 C-100.81861125 69.36888725 -99.03848289 68.58132625 -97.2590332 67.79223633 C-94.79283419 66.6988418 -92.32442992 65.61057762 -89.85546875 64.5234375 C-89.14172089 64.20556274 -88.42797302 63.88768799 -87.69259644 63.56018066 C-82.72647623 61.3822363 -77.68799043 59.59875989 -72.51953125 57.9609375 C-72.95265625 57.07792969 -73.38578125 56.19492187 -73.83203125 55.28515625 C-77.34224556 47.84066791 -79.96462084 41.37135892 -78.51953125 32.9609375 C-75.58110585 25.69220099 -68.60042961 22.84833295 -61.84375 19.87890625 C-60.57951958 19.31300529 -60.57951958 19.31300529 -59.28974915 18.735672 C-56.59851731 17.53304498 -53.90288486 16.34066239 -51.20703125 15.1484375 C-49.43785702 14.35938287 -47.668974 13.56967497 -45.90039062 12.77929688 C-42.4317131 11.2306691 -38.95913433 9.69134192 -35.4831543 8.15917969 C-32.27607107 6.74463212 -29.08057936 5.30831336 -25.89379883 3.84863281 C-24.81344109 3.35983391 -24.81344109 3.35983391 -23.71125793 2.86116028 C-22.3851003 2.26095511 -21.06215927 1.65356142 -19.74345398 1.03715515 C-13.30635761 -1.85154394 -6.61443616 -2.72781398 0 0 Z M-136.51953125 298.9609375 C-137.18033691 300.76328857 -137.18033691 300.76328857 -137.85449219 302.60205078 C-146.95633316 327.42271054 -156.08660988 352.2326501 -165.26953125 377.0234375 C-165.69036987 378.1598468 -166.1112085 379.2962561 -166.5447998 380.46710205 C-167.36591719 382.68408685 -168.18726136 384.90098768 -169.0088501 387.11779785 C-169.78484859 389.21161201 -170.56037707 391.30560044 -171.33538818 393.39978027 C-173.01317332 397.92773179 -174.70059681 402.45106698 -176.42773438 406.96044922 C-176.71304016 407.70830185 -176.99834595 408.45615448 -177.29229736 409.22666931 C-178.03476044 411.16760958 -178.78321772 413.10625407 -179.53222656 415.04467773 C-180.67986765 417.92139019 -180.67986765 417.92139019 -180.51953125 420.9609375 C-150.48953125 420.9609375 -120.45953125 420.9609375 -89.51953125 420.9609375 C-94.96453125 406.1109375 -94.96453125 406.1109375 -100.51953125 390.9609375 C-105.22265625 378.0625 -105.22265625 378.0625 -107.4831543 371.85839844 C-116.35791677 347.5069248 -125.35981262 323.20663994 -134.51953125 298.9609375 C-135.17953125 298.9609375 -135.83953125 298.9609375 -136.51953125 298.9609375 Z "
        fill="#FEE36F"
        transform="translate(408.51953125,1.0390625)" />
    <path
        d="M0 0 C10.55163793 8.52020109 17.09253439 18.20704622 18.83984375 31.8125 C19.71184621 43.8395528 17.094637 55.67796772 9.10546875 65.00390625 C7.87860667 66.29701889 6.61782075 67.55957235 5.3125 68.7734375 C3.82167079 70.67667253 3.82167079 70.67667253 4.32592773 73.28369141 C5.24354045 77.37233201 6.60040953 81.1523064 8.08984375 85.0625 C8.39703842 85.88253006 8.70423309 86.70256012 9.02073669 87.54743958 C9.68802277 89.32684488 10.35778986 91.10532134 11.02975464 92.88296509 C12.11070416 95.74268757 13.18525553 98.60474073 14.25805664 101.4675293 C15.38782667 104.48231046 16.51793092 107.49696037 17.6499176 110.51091003 C21.29265008 120.21163207 24.88938266 129.92907718 28.47607422 139.65063477 C29.53685127 142.52576921 30.59838974 145.40062144 31.66015625 148.27539062 C33.08991318 152.14656145 34.51942774 156.01782161 35.94873047 159.88916016 C38.78765628 167.57795124 41.62911063 175.26580743 44.47070312 182.95361328 C45.87486286 186.75257729 47.27848177 190.55174042 48.68164062 194.35107422 C52.00204506 203.34063397 55.3262485 212.32874262 58.66207886 221.31259155 C60.23892327 225.55987702 61.81387157 229.80786446 63.38867188 234.0559082 C64.1404897 236.08230225 64.89323819 238.10835128 65.64697266 240.1340332 C66.69148051 242.94135326 67.73278587 245.74984237 68.7734375 248.55859375 C69.23471291 249.79445473 69.23471291 249.79445473 69.70530701 251.05528259 C71.37003249 255.55913569 72.83545827 260.05202993 74.08984375 264.6875 C75.17869873 264.6560791 75.17869873 264.6560791 76.28955078 264.62402344 C79.5978393 264.5405635 82.90590586 264.48874461 86.21484375 264.4375 C87.35695313 264.40398437 88.4990625 264.37046875 89.67578125 264.3359375 C96.11640042 264.26104658 100.25412785 264.22816808 105.08984375 268.6875 C108.06653661 272.48534951 108.84195246 275.89493499 109.08984375 280.6875 C108.12957709 286.25704661 106.36925147 289.03434707 102.08984375 292.6875 C99.04624409 294.71656644 98.41466692 294.94182411 94.98901367 294.97802734 C94.16773483 294.99078705 93.34645599 295.00354675 92.50028992 295.01669312 C91.1737011 295.02003159 91.1737011 295.02003159 89.8203125 295.0234375 C88.9065535 295.0300943 87.99279449 295.0367511 87.05134583 295.04360962 C85.11717746 295.05373643 83.18297415 295.05842663 81.2487793 295.05810547 C78.29872494 295.06246838 75.35017921 295.09875874 72.40039062 295.13671875 C70.51953635 295.14258906 68.63867499 295.14655702 66.7578125 295.1484375 C65.87949265 295.16280853 65.00117279 295.17717957 64.09623718 295.19198608 C58.63663192 295.15154677 55.24507592 294.56857964 51.08984375 290.6875 C47.33901124 285.04064511 45.297396 278.23814313 42.98046875 271.9140625 C42.60879578 270.90910736 42.2371228 269.90415222 41.85418701 268.8687439 C41.07554568 266.7601543 40.2991508 264.65073391 39.52490234 262.54052734 C38.33507869 259.29952026 37.1368122 256.06172506 35.9375 252.82421875 C35.18048993 250.77101748 34.42396216 248.71763832 33.66796875 246.6640625 C33.30866272 245.69328766 32.94935669 244.72251282 32.5791626 243.72232056 C32.25172058 242.82733856 31.92427856 241.93235657 31.58691406 241.01025391 C31.29697571 240.22163971 31.00703735 239.43302551 30.70831299 238.62051392 C30.08984375 236.6875 30.08984375 236.6875 30.08984375 234.6875 C-7.53015625 234.6875 -45.15015625 234.6875 -83.91015625 234.6875 C-84.90015625 237.9875 -85.89015625 241.2875 -86.91015625 244.6875 C-88.03131714 247.94358291 -89.16864166 251.1856882 -90.34375 254.421875 C-90.66295914 255.30353333 -90.98216827 256.18519165 -91.31105042 257.09356689 C-91.98093436 258.9394166 -92.65241452 260.78468776 -93.32543945 262.62939453 C-94.34913714 265.44156811 -95.3611566 268.25777858 -96.37304688 271.07421875 C-97.02923364 272.87786419 -97.68611085 274.68125862 -98.34375 276.484375 C-98.64180038 277.31886169 -98.93985077 278.15334839 -99.24693298 279.01312256 C-101.30750775 284.60676983 -103.42427791 289.57117824 -108.07299805 293.52880859 C-112.15329136 295.19519462 -115.93294669 295.19394041 -120.3046875 295.2265625 C-121.21087326 295.23891937 -122.11705902 295.25127625 -123.05070496 295.26400757 C-124.96448331 295.28353749 -126.8783616 295.29479951 -128.79223633 295.29833984 C-131.70371211 295.31240846 -134.61087298 295.37974838 -137.52148438 295.44921875 C-153.09915772 295.63162986 -153.09915772 295.63162986 -158.171875 291.3359375 C-161.98070492 287.03643431 -162.25614983 282.80538808 -162.19140625 277.26171875 C-161.74116432 273.14075439 -160.41218176 271.00099324 -157.91015625 267.6875 C-154.20385262 264.98074747 -151.50896382 264.29259763 -146.953125 264.17578125 C-145.28540039 264.12260742 -145.28540039 264.12260742 -143.58398438 264.06835938 C-142.43349609 264.04580078 -141.28300781 264.02324219 -140.09765625 264 C-138.92783203 263.96583984 -137.75800781 263.93167969 -136.55273438 263.89648438 C-133.67197071 263.81417684 -130.79150487 263.74496822 -127.91015625 263.6875 C-127.54591553 262.67929199 -127.1816748 261.67108398 -126.80639648 260.63232422 C-118.13706299 236.65196311 -109.35182792 212.71582962 -100.47265625 188.8125 C-100.22720062 188.15169182 -99.981745 187.49088364 -99.72885132 186.81005096 C-97.51471523 180.84943322 -95.30011993 174.88898614 -93.08514404 168.92868042 C-87.97537132 155.17748507 -82.87979595 141.42101393 -77.80932617 127.65527344 C-77.14640258 125.85608996 -76.48339899 124.05693595 -75.8203125 122.2578125 C-75.49892807 121.385802 -75.17754364 120.5137915 -74.84642029 119.61535645 C-72.83857046 114.17660809 -70.80819178 108.74677742 -68.76203918 103.32232666 C-67.41505772 99.74905214 -66.07581961 96.17290017 -64.73733521 92.59643555 C-64.10969289 90.92615586 -63.47816844 89.25732908 -62.84249878 87.59008789 C-61.97769144 85.32140193 -61.12611578 83.04816136 -60.27734375 80.7734375 C-60.02000961 80.10915741 -59.76267548 79.44487732 -59.49754333 78.76046753 C-58.26133321 75.40533486 -57.43566321 73.05670918 -58.91015625 69.6875 C-60.16571241 67.96785563 -60.16571241 67.96785563 -61.72265625 66.375 C-70.42264273 56.48865173 -72.54684877 44.96280146 -72.1875 31.96875 C-71.09692477 19.06616986 -64.26439377 8.89172045 -54.5234375 0.62890625 C-38.25264498 -11.45866308 -16.53787631 -11.96229751 0 0 Z M-27.91015625 82.6875 C-28.57096191 84.48985107 -28.57096191 84.48985107 -29.24511719 86.32861328 C-38.34695816 111.14927304 -47.47723488 135.9592126 -56.66015625 160.75 C-57.08099487 161.8864093 -57.5018335 163.0228186 -57.9354248 164.19366455 C-58.75654219 166.41064935 -59.57788636 168.62755018 -60.3994751 170.84436035 C-61.17547359 172.93817451 -61.95100207 175.03216294 -62.72601318 177.12634277 C-64.40379832 181.65429429 -66.09122181 186.17762948 -67.81835938 190.68701172 C-68.10366516 191.43486435 -68.38897095 192.18271698 -68.68292236 192.95323181 C-69.42538544 194.89417208 -70.17384272 196.83281657 -70.92285156 198.77124023 C-72.07049265 201.64795269 -72.07049265 201.64795269 -71.91015625 204.6875 C-41.88015625 204.6875 -11.85015625 204.6875 19.08984375 204.6875 C13.64484375 189.8375 13.64484375 189.8375 8.08984375 174.6875 C3.38671875 161.7890625 3.38671875 161.7890625 1.1262207 155.58496094 C-7.74854177 131.2334873 -16.75043762 106.93320244 -25.91015625 82.6875 C-26.57015625 82.6875 -27.23015625 82.6875 -27.91015625 82.6875 Z "
        fill="#596C75"
        transform="translate(299.91015625,217.3125)" />
    <path
        d="M0 0 C6.94299948 5.48879644 9.77328488 14.86687584 13.10546875 22.7734375 C14.25677132 25.47291796 15.41360686 28.17001856 16.5703125 30.8671875 C16.87820206 31.5866304 17.18609161 32.3060733 17.50331116 33.0473175 C21.48011875 42.32367284 25.5793794 51.54596666 29.66796875 60.7734375 C31.30784874 64.47761819 32.94703571 68.18210517 34.5859375 71.88671875 C34.99442932 72.80999466 35.40292114 73.73327057 35.8237915 74.68452454 C40.43085629 85.10221585 45.0060279 95.53386765 49.57873535 105.9666748 C53.94261412 115.92233419 58.32160191 125.87103412 62.7265625 135.80859375 C63.16199371 136.79149384 63.59742493 137.77439392 64.04605103 138.78707886 C66.1535814 143.54418562 68.26328013 148.30030683 70.37695312 153.0546875 C71.13942025 154.77469644 71.90179484 156.4947464 72.6640625 158.21484375 C73.00698837 158.98385513 73.34991425 159.75286652 73.70323181 160.54518127 C80.31149683 175.48168481 80.31149683 175.48168481 79.48046875 182.9609375 C75.07249587 193.79720416 63.51849407 196.88200115 53.41796875 201.1484375 C50.7323072 202.28987145 48.04778512 203.43397155 45.36328125 204.578125 C44.69494766 204.86208633 44.02661407 205.14604767 43.33802795 205.43861389 C39.12164736 207.2366963 34.94522147 209.10531717 30.78515625 211.03125 C29.76687744 211.49635986 28.74859863 211.96146973 27.69946289 212.44067383 C25.82662166 213.29945924 23.96053869 214.17321851 22.10327148 215.06518555 C15.87036345 217.88907449 10.3155823 218.82216461 3.48046875 217.9609375 C-3.95497488 214.58119039 -6.10354476 208.00534079 -9.109375 200.921875 C-11.56585369 195.15860362 -14.06397751 189.41459403 -16.5859375 183.6796875 C-17.12418655 182.45570755 -17.12418655 182.45570755 -17.67330933 181.20700073 C-18.4220224 179.50511857 -19.17089637 177.80330718 -19.91992188 176.1015625 C-25.65503954 163.06983295 -31.3732062 150.03140466 -37.01953125 136.9609375 C-42.97432116 123.17840304 -49.00816183 109.43105732 -55.05395508 95.68823242 C-58.27000441 88.37585338 -61.48501006 81.06357894 -64.64453125 73.7265625 C-65.08531006 72.70328857 -65.52608887 71.68001465 -65.98022461 70.62573242 C-66.77728855 68.77257859 -67.57248027 66.91861796 -68.36547852 65.0637207 C-70.29761527 60.5901373 -72.37074498 56.26820168 -74.68920898 51.98291016 C-78.16287745 45.53980111 -79.89091716 40.28338339 -78.51953125 32.9609375 C-75.58110585 25.69220099 -68.60042961 22.84833295 -61.84375 19.87890625 C-61.00092972 19.50163895 -60.15810944 19.12437164 -59.28974915 18.735672 C-56.59851731 17.53304498 -53.90288486 16.34066239 -51.20703125 15.1484375 C-49.43785702 14.35938287 -47.668974 13.56967497 -45.90039062 12.77929688 C-42.4317131 11.2306691 -38.95913433 9.69134192 -35.4831543 8.15917969 C-32.27607107 6.74463212 -29.08057936 5.30831336 -25.89379883 3.84863281 C-25.17356033 3.52276688 -24.45332184 3.19690094 -23.71125793 2.86116028 C-22.3851003 2.26095511 -21.06215927 1.65356142 -19.74345398 1.03715515 C-13.30635761 -1.85154394 -6.61443616 -2.72781398 0 0 Z "
        fill="#3B4A51"
        transform="translate(408.51953125,1.0390625)" />
    <path
        d="M0 0 C2.68561465 6.02323468 5.36882033 12.04753865 8.05053711 18.07250977 C8.95854232 20.11180541 9.86705149 22.15087675 10.77612305 24.18969727 C13.42464104 30.13017508 16.06111714 36.07577288 18.68475342 42.02728271 C20.01491824 45.03371817 21.35923619 48.03358919 22.70361328 51.03369141 C23.54398207 52.93491749 24.38369168 54.8364351 25.22265625 56.73828125 C25.61948105 57.61429489 26.01630585 58.49030853 26.42515564 59.39286804 C26.77993484 60.20464005 27.13471405 61.01641205 27.50024414 61.8527832 C27.97283409 62.91369926 27.97283409 62.91369926 28.45497131 63.99604797 C29.11942791 66.43911048 28.9975816 67.67851382 28 70 C25.43150624 71.44783295 23.01274363 72.6049635 20.3046875 73.73046875 C19.09918999 74.25284119 19.09918999 74.25284119 17.86933899 74.7857666 C15.21048138 75.93404545 12.54311962 77.06092903 9.875 78.1875 C8.03237929 78.97691977 6.19034409 79.7677075 4.34887695 80.55981445 C1.48806693 81.78958912 -1.37340091 83.01765089 -4.23753357 84.2396698 C-10.93939581 87.10046932 -17.60759415 90.03003405 -24.26171875 93 C-26.92212122 94.18204994 -29.58292338 95.36319564 -32.24383545 96.5440979 C-33.95323408 97.3050108 -35.66113198 98.06930431 -37.36749268 98.83700562 C-39.7469203 99.90594903 -42.13227988 100.96038971 -44.51953125 102.01171875 C-45.221884 102.33160767 -45.92423676 102.65149658 -46.64787292 102.9810791 C-49.34503011 104.15600127 -51.41159791 105.05321684 -54.38085938 104.78466797 C-56.56244071 103.72742997 -57.36844175 102.46164044 -58.6875 100.4375 C-65.69168721 90.69102504 -75.04593838 84.21620244 -87 82 C-101.23025698 81.1201268 -112.54057009 83.04460333 -124 92 C-132.25699532 99.5818066 -138.52907123 109.81385513 -139.18359375 121.19140625 C-139.31578211 128.39955995 -138.72197378 135.01012214 -137 142 C-145.57792939 146.38185049 -154.24752607 150.49238505 -163.0625 154.375 C-164.25166016 154.92027344 -165.44082031 155.46554687 -166.66601562 156.02734375 C-174.25552815 159.35322568 -181.86796722 162.13698603 -190.07714844 159.27612305 C-197.77749437 155.41583579 -200.78292098 143.09687389 -203.75390625 135.5390625 C-205.55085375 131.02145451 -207.48445365 126.57344339 -209.453125 122.12890625 C-209.76047073 121.43414688 -210.06781647 120.73938751 -210.38447571 120.02357483 C-211.66560955 117.13045339 -212.94837567 114.23809976 -214.23828125 111.34887695 C-215.18984283 109.21520861 -216.13450216 107.07859495 -217.078125 104.94140625 C-217.51865204 103.96174644 -217.51865204 103.96174644 -217.96807861 102.96229553 C-219.21803226 100.11925124 -220 98.1439044 -220 95 C-219.30592041 94.7004541 -218.61184082 94.4009082 -217.89672852 94.09228516 C-201.05315127 86.81851966 -184.23818921 79.48165642 -167.44241333 72.09820557 C-154.80465367 66.54302113 -142.15743079 61.01021084 -129.5 55.5 C-111.92145869 47.84633619 -94.36354253 40.14623767 -76.81134033 32.43238831 C-70.60149269 29.70332214 -64.39080541 26.9761738 -58.1796875 24.25 C-56.84390656 23.66361504 -56.84390656 23.66361504 -55.48114014 23.06538391 C-51.09916878 21.14184636 -46.7168902 19.21901483 -42.33398438 17.29760742 C-34.87303825 14.02575764 -27.41587191 10.74657129 -19.9765625 7.42578125 C-18.80029297 6.90234131 -17.62402344 6.37890137 -16.41210938 5.83959961 C-14.29411673 4.89590993 -12.17806835 3.94783835 -10.06445312 2.99438477 C-9.15888672 2.59147217 -8.25332031 2.18855957 -7.3203125 1.7734375 C-6.16426514 1.25402588 -6.16426514 1.25402588 -4.98486328 0.72412109 C-3 0 -3 0 0 0 Z "
        fill="#F9BE2C"
        transform="translate(368,128)" />
    <path
        d="M0 0 C13.52630484 0 23.41224114 4.5845399 33.1875 13.75 C41.99779993 22.94717937 45.82011173 33.35876058 46 46 C45.32428976 58.20783174 41.26049988 68.68131858 32.22265625 77.0859375 C30.73182704 78.98917253 30.73182704 78.98917253 31.23608398 81.59619141 C32.1536967 85.68483201 33.51056578 89.4648064 35 93.375 C35.46079201 94.60504509 35.46079201 94.60504509 35.93089294 95.85993958 C36.59817902 97.63934488 37.26794611 99.41782134 37.93991089 101.19546509 C39.02086041 104.05518757 40.09541178 106.91724073 41.16821289 109.7800293 C42.29798292 112.79481046 43.42808717 115.80946037 44.56007385 118.82341003 C48.20280633 128.52413207 51.79953891 138.24157718 55.38623047 147.96313477 C56.44700752 150.83826921 57.50854599 153.71312144 58.5703125 156.58789062 C60.00006943 160.45906145 61.42958399 164.33032161 62.85888672 168.20166016 C65.69781253 175.89045124 68.53926688 183.57830743 71.38085938 191.26611328 C72.78501911 195.06507729 74.18863802 198.86424042 75.59179688 202.66357422 C78.91220131 211.65313397 82.23640475 220.64124262 85.57223511 229.62509155 C87.14907952 233.87237702 88.72402782 238.12036446 90.29882812 242.3684082 C91.05064595 244.39480225 91.80339444 246.42085128 92.55712891 248.4465332 C93.60163676 251.25385326 94.64294212 254.06234237 95.68359375 256.87109375 C95.99111069 257.69500107 96.29862762 258.51890839 96.61546326 259.36778259 C98.28018874 263.87163569 99.74561452 268.36452993 101 273 C101.72590332 272.97905273 102.45180664 272.95810547 103.19970703 272.93652344 C106.50799555 272.8530635 109.81606211 272.80124461 113.125 272.75 C114.26710938 272.71648437 115.40921875 272.68296875 116.5859375 272.6484375 C123.02655667 272.57354658 127.1642841 272.54066808 132 277 C134.97669286 280.79784951 135.75210871 284.20743499 136 289 C135.03973334 294.56954661 133.27940772 297.34684707 129 301 C125.95640034 303.02906644 125.32482317 303.25432411 121.89916992 303.29052734 C121.07789108 303.30328705 120.25661224 303.31604675 119.41044617 303.32919312 C118.52605362 303.33141876 117.64166107 303.33364441 116.73046875 303.3359375 C115.81670975 303.3425943 114.90295074 303.3492511 113.96150208 303.35610962 C112.02733371 303.36623643 110.0931304 303.37092663 108.15893555 303.37060547 C105.20888119 303.37496838 102.26033546 303.41125874 99.31054688 303.44921875 C97.4296926 303.45508906 95.54883124 303.45905702 93.66796875 303.4609375 C92.7896489 303.47530853 91.91132904 303.48967957 91.00639343 303.50448608 C85.54678817 303.46404677 82.15523217 302.88107964 78 299 C74.24916749 293.35314511 72.20755225 286.55064313 69.890625 280.2265625 C69.51895203 279.22160736 69.14727905 278.21665222 68.76434326 277.1812439 C67.98570193 275.0726543 67.20930705 272.96323391 66.43505859 270.85302734 C65.24523494 267.61202026 64.04696845 264.37422506 62.84765625 261.13671875 C62.09064618 259.08351748 61.33411841 257.03013832 60.578125 254.9765625 C60.21881897 254.00578766 59.85951294 253.03501282 59.48931885 252.03482056 C59.16187683 251.13983856 58.83443481 250.24485657 58.49707031 249.32275391 C58.20713196 248.53413971 57.9171936 247.74552551 57.61846924 246.93301392 C57 245 57 245 57 243 C38.19 243 19.38 243 0 243 C0 233.1 0 223.2 0 213 C22.275 212.505 22.275 212.505 45 212 C42.40125 205.090625 39.8025 198.18125 37.125 191.0625 C29.71973294 171.33697165 22.34290316 151.60021592 15.16113281 131.79199219 C14.43195786 129.78308795 13.70247351 127.77429598 12.97265625 125.765625 C12.62524384 124.80944275 12.27783142 123.8532605 11.91989136 122.86810303 C10.01657001 117.66522303 8.02006655 112.52809098 5.87109375 107.421875 C-0.72791815 91.47426291 -1.02989085 76.99760031 0 60 C0.62068359 59.81244141 1.24136719 59.62488281 1.88085938 59.43164062 C2.69361328 59.17576172 3.50636719 58.91988281 4.34375 58.65625 C5.55321289 58.28209961 5.55321289 58.28209961 6.78710938 57.90039062 C9.90468297 56.63189863 11.29154945 54.84741758 13 52 C14.80038454 46.59884639 14.85842938 41.7828918 12.375 36.625 C8.73392843 32.60065774 5.19539414 31.29884853 0 30 C0 20.1 0 10.2 0 0 Z "
        fill="#3B4A51"
        transform="translate(273,209)" />
    <path
        d="M0 0 C3.05779052 2.5937833 4.34348593 5.53338052 5.96875 9.16015625 C6.24535461 9.77330688 6.52195923 10.38645752 6.8069458 11.01818848 C7.71174742 13.02985377 8.60610931 15.04596543 9.5 17.0625 C10.12893466 18.46815055 10.75816977 19.87366671 11.38769531 21.27905273 C15.74640188 31.04012046 19.95179901 40.86242923 24.0715332 50.72680664 C27.54108353 59.00902174 31.21142914 67.18764412 35.00488281 75.32641602 C35.5960791 76.60343384 35.5960791 76.60343384 36.19921875 77.90625 C36.72261841 79.02483398 36.72261841 79.02483398 37.2565918 80.16601562 C38 82 38 82 38 84 C16.2393621 93.62734583 -5.52613 103.24350312 -27.3125 112.8125 C-28.15714813 113.18372986 -29.00179626 113.55495972 -29.87203979 113.93743896 C-34.53949299 115.98852385 -39.20931659 118.03402767 -43.88214111 120.07284546 C-45.96166139 120.98321616 -48.03740137 121.90179649 -50.11279297 122.8215332 C-51.37065873 123.37345925 -52.62862773 123.92515012 -53.88671875 124.4765625 C-55.50453247 125.19126709 -55.50453247 125.19126709 -57.1550293 125.92041016 C-62.32876775 127.88370471 -65.92388238 127.73274739 -71.1875 125.875 C-77.70927133 121.52715245 -80.43915613 115.48768499 -83.43359375 108.5 C-83.83401382 107.58726318 -84.2344339 106.67452637 -84.64698792 105.73413086 C-85.91981653 102.82672087 -87.17879505 99.9135481 -88.4375 97 C-89.2783982 95.07382617 -90.12018739 93.14804106 -90.96289062 91.22265625 C-92.96508484 86.64198417 -94.95138339 82.05464093 -96.93212891 77.46466064 C-97.9168993 75.19179752 -98.91207028 72.92389189 -99.91210938 70.65771484 C-100.19425797 70.01350586 -100.47640656 69.36929688 -100.7671051 68.70556641 C-101.49606146 67.04121137 -102.22916064 65.37867244 -102.96264648 63.71630859 C-104.7136133 59.13140467 -104.97258475 55.77096402 -103.31019592 51.03469849 C-100.93869793 45.79308331 -98.31517325 43.33829456 -92.99609375 41.0546875 C-92.29729599 40.73055878 -91.59849823 40.40643005 -90.87852478 40.07247925 C-88.59644562 39.02251385 -86.29976957 38.0105528 -84 37 C-82.44084865 36.29488497 -80.88242424 35.58816046 -79.32470703 34.87988281 C-74.25457368 32.58853442 -69.15959078 30.35557368 -64.0625 28.125 C-62.20191217 27.30723708 -60.34148213 26.48911505 -58.48120117 25.6706543 C-53.64307851 23.54316985 -48.80286379 21.42048876 -43.9621582 19.29888916 C-38.9995111 17.12279724 -34.03891175 14.94204747 -29.078125 12.76171875 C-19.3873864 8.50331733 -9.69442556 4.25000053 0 0 Z "
        fill="#596C75"
        transform="translate(128,182)" />
    <path
        d="M0 0 C6.94262326 5.48849902 9.77420792 14.86695391 13.10546875 22.7734375 C14.2357937 25.42870804 15.37151264 28.08165669 16.5078125 30.734375 C16.964692 31.80301033 16.964692 31.80301033 17.43080139 32.89323425 C20.06432999 39.03499156 22.76708607 45.14490612 25.484375 51.25 C25.91272644 52.21344833 26.34107788 53.17689667 26.78240967 54.16954041 C28.50212996 58.03624483 30.222443 61.90265555 31.95074463 65.76553345 C33.1665431 68.48382407 34.37668023 71.20457576 35.5859375 73.92578125 C36.13200401 75.13973068 36.13200401 75.13973068 36.68910217 76.37820435 C38.67168288 80.8531057 40.25839035 85.21971497 41.48046875 89.9609375 C38.08070431 92.07339009 34.67213912 93.86611973 31.01953125 95.5 C29.92680908 95.98992432 28.83408691 96.47984863 27.70825195 96.98461914 C26.5193335 97.5130542 25.33041504 98.04148926 24.10546875 98.5859375 C22.84657506 99.14765298 21.58770524 99.70942197 20.32885742 100.27124023 C9.1732506 105.24084941 -2.01479191 110.13701998 -13.20703125 115.0234375 C-14.0461908 115.39019592 -14.88535034 115.75695435 -15.74993896 116.13482666 C-33.05690358 123.69393226 -33.05690358 123.69393226 -41.51953125 126.9609375 C-41.96039063 125.92066406 -42.40125 124.88039063 -42.85546875 123.80859375 C-47.92160576 111.90115159 -53.08165693 100.03439339 -58.26818848 88.1789856 C-59.06176255 86.36463929 -59.85448517 84.54992034 -60.6463623 82.73483276 C-67.8019681 66.30373063 -67.8019681 66.30373063 -75.87866211 50.31054688 C-78.8064892 44.58782618 -79.19265107 39.33961116 -78.51953125 32.9609375 C-75.58110585 25.69220099 -68.60042961 22.84833295 -61.84375 19.87890625 C-61.00092972 19.50163895 -60.15810944 19.12437164 -59.28974915 18.735672 C-56.59851731 17.53304498 -53.90288486 16.34066239 -51.20703125 15.1484375 C-49.43785702 14.35938287 -47.668974 13.56967497 -45.90039062 12.77929688 C-42.4317131 11.2306691 -38.95913433 9.69134192 -35.4831543 8.15917969 C-32.27607107 6.74463212 -29.08057936 5.30831336 -25.89379883 3.84863281 C-25.17356033 3.52276688 -24.45332184 3.19690094 -23.71125793 2.86116028 C-22.3851003 2.26095511 -21.06215927 1.65356142 -19.74345398 1.03715515 C-13.30635761 -1.85154394 -6.61443616 -2.72781398 0 0 Z "
        fill="#596C75"
        transform="translate(408.51953125,1.0390625)" />
    <path
        d="M0 0 C0.36762451 0.82089111 0.73524902 1.64178223 1.11401367 2.48754883 C2.50228105 5.58710384 3.89082339 8.68653538 5.27954102 11.78588867 C5.87600224 13.11722092 6.47235963 14.44859969 7.06860352 15.7800293 C7.64788466 17.07354608 8.22732124 18.36699327 8.80691528 19.66036987 C9.37981176 20.93893512 9.95230286 22.21768208 10.52438354 23.49661255 C12.68885215 28.32854519 14.90249586 33.13655459 17.14575195 37.93237305 C18 40 18 40 18 42 C-3.7606379 51.62734583 -25.52613 61.24350312 -47.3125 70.8125 C-48.5794722 71.36934479 -48.5794722 71.36934479 -49.87203979 71.93743896 C-54.53949299 73.98852385 -59.20931659 76.03402767 -63.88214111 78.07284546 C-65.96166139 78.98321616 -68.03740137 79.90179649 -70.11279297 80.8215332 C-71.37065873 81.37345925 -72.62862773 81.92515012 -73.88671875 82.4765625 C-75.50453247 83.19126709 -75.50453247 83.19126709 -77.1550293 83.92041016 C-82.32876775 85.88370471 -85.92388238 85.73274739 -91.1875 83.875 C-99.00127018 78.66581988 -101.73853189 70.46677757 -105.3125 62.125 C-105.86692615 60.851165 -106.42225712 59.57772341 -106.97851562 58.3046875 C-108.3279435 55.20687047 -109.66807977 52.10537504 -111 49 C-107.40061931 45.94693819 -103.30344944 44.2169481 -99.01171875 42.3671875 C-98.21325027 42.01806808 -97.4147818 41.66894867 -96.59211731 41.30924988 C-93.95937398 40.15954586 -91.32347038 39.01728344 -88.6875 37.875 C-86.84354074 37.07136213 -84.9997936 36.2672374 -83.15625 35.46264648 C-78.3798272 33.37938237 -73.60082691 31.3021001 -68.82122803 29.22613525 C-64.37525913 27.2938706 -59.93171262 25.35606003 -55.48828125 23.41796875 C-50.53591887 21.25792745 -45.58339148 19.09828386 -40.62890625 16.94311523 C-33.43496268 13.81298046 -26.24523824 10.6745442 -19.07421875 7.4921875 C-17.89601563 6.97003662 -16.7178125 6.44788574 -15.50390625 5.90991211 C-13.36051301 4.95829222 -11.21848495 4.00358882 -9.078125 3.04516602 C-7.69947266 2.43306274 -7.69947266 2.43306274 -6.29296875 1.80859375 C-5.5043042 1.45595459 -4.71563965 1.10331543 -3.90307617 0.73999023 C-2 0 -2 0 0 0 Z "
        fill="#3B4A51"
        transform="translate(148,224)" />
    <path
        d="M0 0 C3.5677811 2.35149209 5.84221079 4.99692157 7.75 8.8125 C8.34106487 14.49581608 8.02243416 18.96027003 4.75 23.8125 C0.35628126 27.87668983 -3.08164815 29.20423138 -9.125 29.08203125 C-12.81382866 28.61414673 -15.49620094 27.30137661 -18.25 24.8125 C-21.68120373 20.14646779 -23.09383459 15.61386278 -22.25 9.8125 C-20.50656517 4.92262954 -17.83049481 1.78115588 -13.17578125 -0.53125 C-8.56339171 -2.10301763 -4.58443247 -1.67508109 0 0 Z "
        fill="#F7BD2D"
        transform="translate(280.25,240.1875)" />
    <path
        d="M0 0 C0 9.9 0 19.8 0 30 C-7.66216216 28.72297297 -7.66216216 28.72297297 -11 26 C-14.30270813 21.23420293 -15.8497783 16.84222581 -15 11 C-13.47545599 6.72405999 -11.3856512 3.93567192 -7.5 1.5625 C-4 0 -4 0 0 0 Z "
        fill="#FCE270"
        transform="translate(273,239)" />
</svg>
